# xmcd CD database file
#
# Track frame offsets:
#	150
#	15595
#	29012
#
# Disc length: 594 seconds
#
# Revision: 5
# Processed by: cddbd v1.5.2PL0 Copyright (c) Steve Scherf et al.
# Submitted via: CDex 1.51
#
DISCID=1c025003
DTITLE=Rascal Flatts / Greatest Hits Volume 1 (CD 2) Christmas
DYEAR=2008
DGENRE=Christmas
TTITLE0=White Christmas
TTITLE1=Jingle Bell Rock
TTITLE2=I'll Be Home For Christmas
EXTD= YEAR: 2008
EXTT0=
EXTT1=
EXTT2=
PLAYORDER=
.
